[img]http://img530.imageshack.us/img530/8563/15626front.jpg[/img]
[code]
Info:
Thx Hive

CM8 Doing It Right The First Time

Why download a touched up rip of a rip BRrip
Get the real deal BDRip
Enjoy

Source US Bluray

Video: 720x304 @bitrate 1800 2pass
Audio: DTS to AC3 5.1 @448
Sample: Yes, included
Subs: Yes, in srt
 
http://www.imdb.com/title/tt0938283/

General
Complete name                    : The.Last.Airbender.2010.BDRip.XVID.AC3.HQ.Hive-CM8.avi
Format                           : AVI
Format/Info                      : Audio Video Interleave
File size                        : 1.63 GiB
Duration                         : 1h 43mn
Overall bit rate                 : 2 258 Kbps
Writing application              : Nandub v1.0rc2
Writing library                  : Nandub build 1853/release

Video
ID                               : 0
Format                           : MPEG-4 Visual
Format profile                   : Advanced Simple@L5
Format settings, BVOP            : Yes
Format settings, QPel            : Yes
Format settings, GMC             : No warppoints
Format settings, Matrix          : Default (H.263)
Muxing mode                      : Packed bitstream
Codec ID                         : XVID
Codec ID/Hint                    : XviD
Duration                         : 1h 43mn
Bit rate                         : 1 800 Kbps
Width                            : 720 pixels
Height                           : 304 pixels
Display aspect ratio             : 2.35:1
Frame rate                       : 23.976 fps
Color space                      : YUV
Chroma subsampling               : 4:2:0
Bit depth                        : 8 bits
Scan type                        : Progressive
Bits/(Pixel*Frame)               : 0.343
Stream size                      : 1.30 GiB (80%)
Writing library                  : XviD 1.2.1 (UTC 2008-12-04)

Audio
ID                               : 1
Format                           : AC-3
Format/Info                      : Audio Coding 3
Mode extension                   : CM (complete main)
Codec ID                         : 2000
Duration                         : 1h 43mn
Bit rate mode                    : Constant
Bit rate                         : 448 Kbps
Channel(s)                       : 6 channels
Channel positions                : Front: L C R, Side: L R, LFE
Sampling rate                    : 48.0 KHz
Bit depth                        : 16 bits
Stream size                      : 331 MiB (20%)
Alignment                        : Split accross interleaves
Interleave, duration             : 42 ms (1.00 video frame)
Interleave, preload duration     : 500 ms


Cast:
Dev Patel ... Prince Zuko
Nicola Peltz ... Katara
Jackson Rathbone ... Sokka
Shaun Toub ... Uncle Iroh
Aasif Mandvi ... Commander Zhao
Cliff Curtis ... Fire Lord Ozai
Seychelle Gabriel ... Princess Yue
Katharine Houghton ... Katara's Grandma
Francis Guinan ... Master Pakku
Damon Gupton ... Monk Gyatso
Summer Bishil ... Azula
Randall Duk Kim ... Old Man in Temple
John D'Alonzo ... Zhao's Assistant
Keong Sim ... Earthbending Father


Plot:
The story follows the adventures of Aang,
a young successor to a long line of Avatars,
who must put his childhood ways aside and stop the Fire Nation from enslaving the Water,
Earth and Air nations.
[/code]
Screens:
[img]http://img249.imageshack.us/img249/7692/tla1.png[/img]
[img]http://img190.imageshack.us/img190/4909/tla2.png[/img]
[img]http://img688.imageshack.us/img688/5349/tla3.png[/img]
[img]http://img841.imageshack.us/img841/8374/tla4.png[/img]